<?xml version="1.0" standalone="no"?>
<!DOCTYPE svg PUBLIC "-//W3C//DTD SVG 20010904//EN"
 "http://www.w3.org/TR/2001/REC-SVG-20010904/DTD/svg10.dtd">
<svg version="1.0" xmlns="http://www.w3.org/2000/svg"
 width="227.000000pt" height="227.000000pt" viewBox="0 0 227.000000 227.000000"
 preserveAspectRatio="xMidYMid meet">
<metadata>
Created by potrace 1.11, written by Peter Selinger 2001-2013
</metadata>
<g transform="translate(0.000000,227.000000) scale(0.100000,-0.100000)"
fill="#000000" stroke="none">
<path d="M211 1712 c-61 -20 -113 -75 -128 -135 -3 -12 -6 -211 -7 -442 -2
-381 0 -425 16 -470 10 -27 30 -60 45 -73 63 -54 48 -52 733 -54 621 -1 636 0
675 20 44 22 80 59 97 100 7 16 13 99 14 197 1 94 3 175 3 181 1 7 14 10 34 8
17 -3 73 -7 122 -10 50 -3 113 -7 140 -10 141 -10 203 -7 233 15 57 40 74 120
37 177 -18 28 -41 48 -48 42 -2 -2 -10 2 -18 8 -16 13 -121 11 -437 -9 -58 -4
-62 -3 -63 17 0 11 -2 84 -3 161 -2 145 -9 175 -48 220 -24 28 -126 86 -112
64 5 -8 3 -10 -7 -4 -7 5 -289 9 -626 9 -475 1 -622 -2 -652 -12z m82 -44 c-2
-5 6 -4 19 1 13 4 32 5 43 1 11 -4 29 -4 40 0 11 4 29 4 40 0 11 -4 30 -4 41
1 13 4 26 3 33 -4 6 -6 11 -7 11 -1 0 10 51 11 68 0 7 -4 12 -4 12 1 0 4 25 8
55 8 30 0 55 -4 55 -9 0 -4 8 -5 18 -1 32 12 52 14 58 4 4 -6 11 -6 20 2 8 6
14 8 14 3 0 -5 11 -9 25 -9 14 0 25 2 25 5 0 3 18 5 40 5 22 0 40 -4 40 -9 0
-4 8 -5 18 -1 32 12 52 14 58 4 4 -6 11 -6 20 2 8 6 14 8 14 3 0 -5 11 -9 25
-9 14 0 25 2 25 5 0 3 18 5 40 5 22 0 40 -3 40 -7 0 -8 21 -5 39 7 9 5 16 5
18 -1 2 -5 58 -8 126 -8 88 1 128 -3 145 -13 12 -7 22 -11 22 -8 0 3 9 -4 19
-14 16 -16 30 -43 37 -73 1 -5 3 -11 4 -15 1 -5 4 -73 5 -153 1 -80 3 -156 4
-168 l1 -24 113 7 c61 4 138 8 169 8 32 1 58 3 58 6 0 4 44 6 97 7 88 1 99 -1
119 -21 34 -34 35 -75 1 -108 -19 -19 -36 -27 -48 -24 -10 3 -22 1 -25 -4 -3
-5 -10 -6 -16 -3 -6 4 -45 9 -87 11 -137 6 -160 9 -167 15 -4 4 -14 3 -24 -2
-10 -5 -20 -7 -23 -3 -3 3 -40 7 -81 10 -54 3 -76 1 -82 -8 -4 -8 -8 -100 -8
-205 -1 -211 -3 -218 -70 -268 -26 -20 -41 -21 -315 -22 -158 0 -293 -4 -299
-8 -7 -4 -12 -4 -12 1 0 10 -452 9 -468 -1 -7 -4 -12 -4 -12 1 0 4 -45 8 -100
7 -91 0 -104 2 -136 24 -69 47 -70 49 -69 524 1 381 2 427 18 449 29 43 41 54
75 69 34 16 84 21 75 8z"/>
<path d="M865 1450 c2 -3 -37 -6 -85 -5 -57 0 -94 -5 -102 -13 -15 -15 -8 -22
28 -28 16 -2 40 -7 54 -10 14 -4 47 -8 74 -9 39 -2 49 0 53 15 4 15 14 18 66
16 72 -3 87 1 87 20 0 8 -6 15 -12 15 -41 4 -166 3 -163 -1z"/>
<path d="M1287 1323 c-2 -5 -3 -20 -2 -35 1 -18 -3 -27 -14 -27 -43 -2 -51 -6
-56 -32 -4 -16 -4 -33 0 -39 3 -5 2 -10 -3 -10 -13 0 -10 -33 3 -42 6 -5 6 -8
-1 -8 -8 0 -8 -10 0 -35 11 -35 28 -43 56 -25 9 5 19 5 27 -2 10 -8 13 2 14
48 1 103 1 189 0 202 -1 13 -17 17 -24 5z m-7 -184 c-4 -27 -10 -52 -14 -56
-9 -9 -27 18 -20 29 3 4 0 8 -6 8 -6 0 -8 5 -5 10 3 6 7 29 7 52 0 23 5 47 12
54 17 19 33 -40 26 -97z"/>
<path d="M422 1304 c-9 -9 -14 -43 -14 -92 -1 -120 1 -144 12 -137 6 3 10 1
10 -4 0 -6 11 -11 25 -11 14 0 25 5 25 11 0 8 4 8 14 0 20 -16 23 -5 22 64 -1
60 -1 60 -32 61 -19 1 -31 -4 -31 -12 0 -7 4 -11 8 -9 12 8 27 -19 25 -48 -1
-16 -9 -33 -18 -38 -13 -7 -18 -3 -25 19 -9 29 -9 169 0 178 9 9 48 -7 42 -17
-4 -5 1 -9 9 -9 19 0 21 31 4 48 -17 17 -60 14 -76 -4z"/>
<path d="M829 1256 c-2 -90 0 -169 6 -185 11 -30 29 9 26 58 -2 45 0 48 21 47
14 -1 23 5 23 14 0 8 -9 15 -20 15 -15 0 -21 8 -23 33 -4 40 12 62 39 55 14
-4 18 -1 14 9 -4 9 -21 15 -45 15 l-40 1 -1 -62z"/>
<path d="M576 1255 c-10 -7 -19 -25 -20 -39 0 -14 -5 -26 -11 -26 -7 0 -7 -3
0 -8 12 -8 14 -72 3 -72 -4 0 2 -11 14 -25 12 -14 31 -25 44 -25 36 0 48 26
48 103 0 61 -4 72 -23 88 -27 22 -30 23 -55 4z m40 -29 c6 -14 8 -63 6 -112
-1 -20 -7 -31 -17 -31 -8 0 -16 3 -16 6 -4 17 -5 128 -1 139 6 16 21 15 28 -2z"/>
<path d="M730 1262 c-34 -12 -43 -33 -43 -103 1 -78 12 -99 54 -99 38 0 47 21
45 109 -1 62 -4 76 -21 86 -11 7 -27 10 -35 7z m27 -102 c2 -64 1 -70 -17 -70
-14 0 -18 5 -13 17 4 9 2 14 -4 10 -15 -9 -9 89 7 108 19 23 23 12 27 -65z"/>
<path d="M969 1263 c-33 -7 -44 -146 -16 -190 11 -18 55 -16 74 3 19 18 21
147 3 169 -13 15 -38 22 -61 18z m39 -93 c2 -34 0 -70 -3 -78 -5 -14 -7 -14
-22 0 -16 17 -25 108 -10 108 4 0 5 5 2 10 -8 14 4 32 18 27 7 -2 13 -30 15
-67z"/>
<path d="M1090 1250 c-22 -14 -23 -154 -1 -173 22 -19 51 -28 51 -16 0 6 4 8
9 5 25 -16 38 126 16 177 -8 18 -50 23 -75 7z m56 -92 c-1 -56 -3 -63 -21 -63
-18 0 -20 7 -20 60 -1 61 11 90 31 74 5 -4 10 -37 10 -71z"/>
<path d="M2073 1171 c-10 -16 -9 -23 5 -39 14 -16 22 -18 37 -9 32 17 36 31
14 50 -27 22 -41 22 -56 -2z"/>
<path d="M472 958 c-1 -26 1 -30 9 -15 6 10 6 23 1 33 -7 12 -9 8 -10 -18z"/>
<path d="M537 983 c-9 -9 -9 -53 1 -53 4 0 7 14 7 30 1 33 1 33 -8 23z"/>
<path d="M803 980 c2 -8 12 -15 23 -15 12 0 18 -7 18 -18 -2 -23 3 -22 17 4 7
13 7 19 1 15 -6 -3 -13 -2 -17 4 -4 6 -11 7 -17 4 -6 -4 -15 0 -20 7 -8 12 -9
11 -5 -1z"/>
<path d="M975 980 c-3 -5 -1 -10 4 -10 6 0 11 5 11 10 0 6 -2 10 -4 10 -3 0
-8 -4 -11 -10z"/>
<path d="M636 963 c-6 -14 -5 -15 5 -6 7 7 10 15 7 18 -3 3 -9 -2 -12 -12z"/>
<path d="M708 974 c-7 -7 2 -44 11 -44 3 0 7 11 7 25 2 24 -6 32 -18 19z"/>
<path d="M741 958 c1 -18 2 -19 6 -5 2 9 9 14 15 11 7 -4 8 -2 4 4 -12 20 -26
13 -25 -10z"/>
<path d="M1202 964 c-14 -16 -5 -18 17 -5 7 5 9 11 5 14 -5 3 -15 -1 -22 -9z"/>
<path d="M669 957 c5 -5 7 -16 4 -25 -4 -10 -2 -13 5 -8 15 9 11 43 -5 43 -9
0 -10 -4 -4 -10z"/>
<path d="M1041 959 c-1 -8 6 -24 15 -35 15 -19 15 -19 6 1 -5 11 -12 27 -15
35 -5 13 -6 13 -6 -1z"/>
<path d="M1120 960 c-8 -5 -12 -10 -10 -12 3 -2 16 -12 30 -23 l25 -20 -18 22
c-11 12 -16 27 -12 32 8 13 4 14 -15 1z"/>
<path d="M1240 966 c0 -2 7 -7 16 -10 8 -3 12 -2 9 4 -6 10 -25 14 -25 6z"/>
<path d="M560 951 c0 -6 5 -13 12 -17 6 -4 8 -3 4 4 -3 5 0 13 6 15 8 3 6 6
-4 6 -10 1 -18 -3 -18 -8z"/>
<path d="M605 950 c3 -5 8 -10 11 -10 2 0 4 5 4 10 0 6 -5 10 -11 10 -5 0 -7
-4 -4 -10z"/>
<path d="M881 953 c0 -4 4 -17 8 -27 6 -15 9 -16 13 -5 3 8 -1 20 -8 27 -8 7
-14 9 -13 5z"/>
<path d="M996 948 c3 -5 10 -6 15 -3 13 9 11 12 -6 12 -8 0 -12 -4 -9 -9z"/>
<path d="M1246 937 c3 -10 9 -15 12 -12 3 3 0 11 -7 18 -10 9 -11 8 -5 -6z"/>
<path d="M1180 936 c0 -2 9 -6 20 -9 11 -3 18 -1 14 4 -5 9 -34 13 -34 5z"/>
</g>
</svg>
